<svg width="42" height="22" viewBox="0 0 42 22" fill="none" xmlns="http://www.w3.org/2000/svg">
<path fill-rule="evenodd" clip-rule="evenodd" d="M41.8475 20.0825C41.7157 21.1649 40.8374 22 39.7725 22H3.05975C1.90259 22 0.967529 21.0155 0.967529 19.801V2.17216C0.967529 1.07423 1.73221 0.164948 2.73218 0H40.0991C41.0118 0.150515 41.7299 0.92165 41.8475 1.89072V20.0825ZM5.65804 4.3433V17.6784H8.94698V4.3433H5.65804ZM15.962 4.3433L15.2003 10.5732L14.7287 7.18557C14.6108 6.2363 14.4796 5.28878 14.3352 4.3433H10.0707V17.6784H12.9509L12.961 8.87423L14.174 17.6784H16.2256L17.3767 8.67732L17.3869 17.6784H20.258V4.3433H15.962ZM25.6513 7.11649C25.6878 7.2866 25.7061 7.6732 25.7061 8.27629V13.4464C25.7061 14.333 25.6513 14.8773 25.5428 15.0773C25.4332 15.2773 25.1422 15.3773 24.6696 15.3773V6.62474C25.0276 6.62474 25.272 6.66392 25.4018 6.7433C25.5316 6.82268 25.6148 6.94742 25.6513 7.11649ZM27.137 17.5433C27.5285 17.4526 27.8571 17.2938 28.1238 17.066C28.3895 16.8392 28.5761 16.5237 28.6836 16.1196C28.7901 15.7175 28.854 14.9175 28.854 13.7227V9.03918C28.854 7.77835 28.8074 6.93196 28.7344 6.50206C28.6598 6.06808 28.4705 5.6629 28.1867 5.3299C27.8936 4.97938 27.4666 4.7268 26.9058 4.5732C26.345 4.41959 25.4292 4.3433 23.8369 4.3433H21.3827V17.6784H25.3683C26.1563 17.6784 26.7456 17.633 27.137 17.5433ZM34.1611 15.6649C34.1003 15.8351 33.8356 15.9206 33.6338 15.9206C33.438 15.9206 33.3082 15.8381 33.2413 15.6742C33.1754 15.5093 33.1429 15.135 33.1429 14.5505V11.0247C33.1429 10.4175 33.1713 10.0392 33.2301 9.88866C33.288 9.73814 33.4147 9.66185 33.6105 9.66185C33.8113 9.66185 34.08 9.74845 34.149 9.92062C34.2179 10.0928 34.2524 10.4619 34.2524 11.0247V14.4423C34.2524 15.0876 34.222 15.4959 34.1611 15.6649ZM29.9747 17.6784H32.936L33.1399 16.8289C33.4076 17.1701 33.7038 17.4268 34.0263 17.5969C34.3488 17.768 34.8315 17.8536 35.2047 17.8536C35.724 17.8536 36.1733 17.7093 36.5515 17.4216C36.9288 17.1351 37.1702 16.7948 37.2716 16.4031C37.374 16.0113 37.4257 15.4165 37.4257 14.6165V10.8753C37.4257 10.0701 37.4085 9.54536 37.375 9.29794C37.3305 9.02609 37.2265 8.76787 37.0708 8.54227C36.8897 8.27442 36.6355 8.06623 36.3396 7.9433C36.0191 7.8 35.6418 7.72887 35.2057 7.72887C34.8274 7.72887 34.3437 7.80825 34.0202 7.96598C33.6804 8.13685 33.3811 8.38059 33.1429 8.68041V4.3433H29.9747V17.6784Z" fill="white"/>
</svg>
