<svg width="22" height="22" viewBox="0 0 22 22" fill="none" xmlns="http://www.w3.org/2000/svg">
<path fill-rule="evenodd" clip-rule="evenodd" d="M10.9996 21.9992C4.92482 21.9992 0 17.0752 0 11.0004C0 4.92482 4.92482 0 10.9996 0C17.0752 0 22 4.92482 22 10.9996C22 17.0752 17.0752 22 10.9996 22V21.9992ZM10.9996 12.7676C11.2318 12.7676 11.4617 12.7219 11.6762 12.633C11.8907 12.5442 12.0856 12.414 12.2498 12.2498C12.414 12.0856 12.5442 11.8907 12.633 11.6762C12.7219 11.4617 12.7676 11.2318 12.7676 10.9996C12.7676 10.7674 12.7219 10.5375 12.633 10.323C12.5442 10.1085 12.414 9.91362 12.2498 9.74945C12.0856 9.58527 11.8907 9.45504 11.6762 9.36619C11.4617 9.27734 11.2318 9.23161 10.9996 9.23161C10.5307 9.23161 10.081 9.41788 9.74945 9.74945C9.41788 10.081 9.23161 10.5307 9.23161 10.9996C9.23161 11.4685 9.41788 11.9182 9.74945 12.2498C10.081 12.5813 10.5307 12.7676 10.9996 12.7676ZM15.2234 9.42857C15.5717 9.42857 15.9166 9.35997 16.2383 9.2267C16.5601 9.09342 16.8524 8.89808 17.0987 8.65182C17.3449 8.40556 17.5403 8.1132 17.6736 7.79145C17.8068 7.46969 17.8754 7.12483 17.8754 6.77657C17.8754 6.4283 17.8068 6.08345 17.6736 5.76169C17.5403 5.43993 17.3449 5.14758 17.0987 4.90132C16.8524 4.65506 16.5601 4.45971 16.2383 4.32644C15.9166 4.19316 15.5717 4.12456 15.2234 4.12456C14.5201 4.12456 13.8455 4.40397 13.3482 4.90132C12.8508 5.39866 12.5714 6.07321 12.5714 6.77657C12.5714 7.47992 12.8508 8.15447 13.3482 8.65182C13.8455 9.14916 14.5201 9.42857 15.2234 9.42857ZM15.2234 17.8747C15.5717 17.8747 15.9166 17.8061 16.2383 17.6728C16.5601 17.5395 16.8524 17.3442 17.0987 17.0979C17.3449 16.8516 17.5403 16.5593 17.6736 16.2375C17.8068 15.9158 17.8754 15.5709 17.8754 15.2227C17.8754 14.8744 17.8068 14.5295 17.6736 14.2078C17.5403 13.886 17.3449 13.5937 17.0987 13.3474C16.8524 13.1011 16.5601 12.9058 16.2383 12.7725C15.9166 12.6392 15.5717 12.5707 15.2234 12.5707C14.5201 12.5707 13.8455 12.8501 13.3482 13.3474C12.8508 13.8448 12.5714 14.5193 12.5714 15.2227C12.5714 15.926 12.8508 16.6006 13.3482 17.0979C13.8455 17.5953 14.5201 17.8747 15.2234 17.8747ZM6.77657 9.42935C7.12483 9.42935 7.46969 9.36075 7.79145 9.22747C8.1132 9.0942 8.40556 8.89885 8.65182 8.65259C8.89808 8.40633 9.09342 8.11398 9.2267 7.79222C9.35997 7.47047 9.42857 7.12561 9.42857 6.77734C9.42857 6.42908 9.35997 6.08422 9.2267 5.76246C9.09342 5.44071 8.89808 5.14835 8.65182 4.90209C8.40556 4.65583 8.1132 4.46049 7.79145 4.32721C7.46969 4.19393 7.12483 4.12534 6.77657 4.12534C6.07321 4.12534 5.39866 4.40475 4.90132 4.90209C4.40397 5.39944 4.12456 6.07399 4.12456 6.77734C4.12456 7.4807 4.40397 8.15525 4.90132 8.65259C5.39866 9.14994 6.07321 9.42935 6.77657 9.42935ZM6.77657 17.8754C7.12483 17.8754 7.46969 17.8068 7.79145 17.6736C8.1132 17.5403 8.40556 17.3449 8.65182 17.0987C8.89808 16.8524 9.09342 16.5601 9.2267 16.2383C9.35997 15.9166 9.42857 15.5717 9.42857 15.2234C9.42857 14.8752 9.35997 14.5303 9.2267 14.2086C9.09342 13.8868 8.89808 13.5944 8.65182 13.3482C8.40556 13.1019 8.1132 12.9066 7.79145 12.7733C7.46969 12.64 7.12483 12.5714 6.77657 12.5714C6.07321 12.5714 5.39866 12.8508 4.90132 13.3482C4.40397 13.8455 4.12456 14.5201 4.12456 15.2234C4.12456 15.9268 4.40397 16.6013 4.90132 17.0987C5.39866 17.596 6.07321 17.8754 6.77657 17.8754Z" fill="white"/>
</svg>
